<svg xmlns="http://www.w3.org/2000/svg" xmlns:xlink="http://www.w3.org/1999/xlink" width="500" zoomAndPan="magnify" viewBox="0 0 375 374.999991" height="500" preserveAspectRatio="xMidYMid meet" version="1.0"><defs><g/></defs><rect x="-37.5" width="450" fill="#ffffff" y="-37.499999" height="449.999989" fill-opacity="1"/><rect x="-37.5" width="450" fill="#1a1a1a" y="-37.499999" height="449.999989" fill-opacity="1"/><g fill="#ffffff" fill-opacity="1"><g transform="translate(28.687838, 206.956006)"><g><path d="M 15.03125 -19.59375 L 27.53125 -19.59375 L 27.53125 -10.859375 C 27.53125 -9.128906 27.253906 -7.554688 26.703125 -6.140625 C 26.160156 -4.722656 25.382812 -3.519531 24.375 -2.53125 C 23.375 -1.550781 22.15625 -0.796875 20.71875 -0.265625 C 19.289062 0.265625 17.675781 0.53125 15.875 0.53125 C 14.113281 0.53125 12.507812 0.265625 11.0625 -0.265625 C 9.613281 -0.796875 8.382812 -1.550781 7.375 -2.53125 C 6.375 -3.519531 5.597656 -4.722656 5.046875 -6.140625 C 4.503906 -7.554688 4.234375 -9.128906 4.234375 -10.859375 L 4.234375 -27.265625 C 4.234375 -28.953125 4.515625 -30.5 5.078125 -31.90625 C 5.640625 -33.320312 6.425781 -34.523438 7.4375 -35.515625 C 8.445312 -36.503906 9.671875 -37.269531 11.109375 -37.8125 C 12.554688 -38.363281 14.144531 -38.640625 15.875 -38.640625 C 19.09375 -38.640625 21.722656 -37.828125 23.765625 -36.203125 C 25.816406 -34.585938 27.160156 -32.222656 27.796875 -29.109375 L 22.921875 -29.109375 C 22.566406 -30.773438 21.769531 -32.070312 20.53125 -33 C 19.300781 -33.9375 17.75 -34.40625 15.875 -34.40625 C 13.757812 -34.40625 12.082031 -33.769531 10.84375 -32.5 C 9.613281 -31.226562 9 -29.484375 9 -27.265625 L 9 -10.859375 C 9 -8.628906 9.613281 -6.878906 10.84375 -5.609375 C 12.082031 -4.335938 13.757812 -3.703125 15.875 -3.703125 C 18 -3.703125 19.675781 -4.335938 20.90625 -5.609375 C 22.144531 -6.878906 22.765625 -8.628906 22.765625 -10.859375 L 22.765625 -15.359375 L 15.03125 -15.359375 Z M 15.03125 -19.59375 "/></g></g></g><g fill="#ffffff" fill-opacity="1"><g transform="translate(60.447831, 206.956006)"><g><path d="M 5.921875 -29.109375 L 10.421875 -29.109375 L 10.421875 -24.09375 L 10.859375 -24.09375 C 11.316406 -25.820312 12.265625 -27.175781 13.703125 -28.15625 C 15.148438 -29.144531 16.9375 -29.640625 19.0625 -29.640625 C 22.125 -29.640625 24.53125 -28.675781 26.28125 -26.75 C 28.03125 -24.832031 28.90625 -22.195312 28.90625 -18.84375 L 28.90625 -17.203125 L 24.140625 -17.203125 L 24.140625 -18.265625 C 24.140625 -20.554688 23.566406 -22.328125 22.421875 -23.578125 C 21.273438 -24.835938 19.640625 -25.46875 17.515625 -25.46875 C 15.441406 -25.46875 13.785156 -24.820312 12.546875 -23.53125 C 11.304688 -22.238281 10.6875 -20.484375 10.6875 -18.265625 L 10.6875 0 L 5.921875 0 Z M 5.921875 -29.109375 "/></g></g></g><g fill="#ffffff" fill-opacity="1"><g transform="translate(92.207824, 206.956006)"><g><path d="M 3.328125 -8.46875 C 3.328125 -9.84375 3.566406 -11.085938 4.046875 -12.203125 C 4.523438 -13.316406 5.210938 -14.257812 6.109375 -15.03125 C 7.015625 -15.8125 8.101562 -16.410156 9.375 -16.828125 C 10.644531 -17.253906 12.070312 -17.46875 13.65625 -17.46875 L 22.34375 -17.46875 L 22.34375 -19.859375 C 22.34375 -21.648438 21.75 -23.046875 20.5625 -24.046875 C 19.382812 -25.054688 17.679688 -25.5625 15.453125 -25.5625 C 13.828125 -25.5625 12.441406 -25.257812 11.296875 -24.65625 C 10.148438 -24.0625 9.382812 -23.238281 9 -22.1875 L 4.234375 -22.1875 C 4.722656 -24.476562 5.984375 -26.289062 8.015625 -27.625 C 10.046875 -28.96875 12.5625 -29.640625 15.5625 -29.640625 C 19.164062 -29.640625 21.988281 -28.800781 24.03125 -27.125 C 26.082031 -25.445312 27.109375 -23.109375 27.109375 -20.109375 L 27.109375 0 L 22.765625 0 L 22.765625 -5.5625 L 22.34375 -5.5625 C 21.882812 -3.6875 20.804688 -2.203125 19.109375 -1.109375 C 17.410156 -0.015625 15.347656 0.53125 12.921875 0.53125 C 9.984375 0.53125 7.648438 -0.28125 5.921875 -1.90625 C 4.191406 -3.53125 3.328125 -5.71875 3.328125 -8.46875 Z M 13.96875 -3.390625 C 15.175781 -3.390625 16.289062 -3.546875 17.3125 -3.859375 C 18.332031 -4.179688 19.210938 -4.632812 19.953125 -5.21875 C 20.691406 -5.800781 21.273438 -6.476562 21.703125 -7.25 C 22.128906 -8.03125 22.34375 -8.878906 22.34375 -9.796875 L 22.34375 -13.765625 L 13.765625 -13.765625 C 11.992188 -13.765625 10.601562 -13.304688 9.59375 -12.390625 C 8.59375 -11.472656 8.09375 -10.203125 8.09375 -8.578125 C 8.09375 -6.953125 8.601562 -5.679688 9.625 -4.765625 C 10.65625 -3.847656 12.101562 -3.390625 13.96875 -3.390625 Z M 20.375 -37.84375 C 21.125 -37.84375 21.707031 -38.097656 22.125 -38.609375 C 22.550781 -39.128906 22.765625 -39.847656 22.765625 -40.765625 L 22.765625 -41.828125 L 26.203125 -41.828125 L 26.203125 -40.765625 C 26.203125 -38.710938 25.691406 -37.140625 24.671875 -36.046875 C 23.648438 -34.953125 22.21875 -34.40625 20.375 -34.40625 C 19.175781 -34.40625 18.1875 -34.625 17.40625 -35.0625 C 16.632812 -35.507812 15.929688 -36 15.296875 -36.53125 C 14.660156 -37.0625 14.050781 -37.546875 13.46875 -37.984375 C 12.882812 -38.421875 12.1875 -38.640625 11.375 -38.640625 C 10.632812 -38.640625 10.050781 -38.382812 9.625 -37.875 C 9.207031 -37.363281 9 -36.648438 9 -35.734375 L 9 -34.671875 L 5.5625 -34.671875 L 5.5625 -35.734375 C 5.5625 -37.773438 6.070312 -39.34375 7.09375 -40.4375 C 8.113281 -41.53125 9.539062 -42.078125 11.375 -42.078125 C 12.582031 -42.078125 13.570312 -41.859375 14.34375 -41.421875 C 15.125 -40.984375 15.832031 -40.5 16.46875 -39.96875 C 17.101562 -39.4375 17.71875 -38.945312 18.3125 -38.5 C 18.914062 -38.0625 19.601562 -37.84375 20.375 -37.84375 Z M 20.375 -37.84375 "/></g></g></g><g fill="#ffffff" fill-opacity="1"><g transform="translate(123.967817, 206.956006)"><g><path d="M 9 -10.859375 C 9 -8.628906 9.609375 -6.878906 10.828125 -5.609375 C 12.046875 -4.335938 13.726562 -3.703125 15.875 -3.703125 C 18 -3.703125 19.675781 -4.335938 20.90625 -5.609375 C 22.144531 -6.878906 22.765625 -8.628906 22.765625 -10.859375 L 22.765625 -18.265625 C 22.765625 -20.484375 22.144531 -22.226562 20.90625 -23.5 C 19.675781 -24.769531 18 -25.40625 15.875 -25.40625 C 13.757812 -25.40625 12.082031 -24.769531 10.84375 -23.5 C 9.613281 -22.226562 9 -20.484375 9 -18.265625 Z M 4.234375 -18.265625 C 4.234375 -20.023438 4.503906 -21.601562 5.046875 -23 C 5.597656 -24.394531 6.375 -25.585938 7.375 -26.578125 C 8.382812 -27.566406 9.601562 -28.320312 11.03125 -28.84375 C 12.46875 -29.375 14.082031 -29.640625 15.875 -29.640625 C 19.476562 -29.640625 22.320312 -28.632812 24.40625 -26.625 C 26.488281 -24.613281 27.53125 -21.84375 27.53125 -18.3125 L 27.53125 -10.859375 C 27.53125 -9.085938 27.265625 -7.492188 26.734375 -6.078125 C 26.203125 -4.671875 25.429688 -3.484375 24.421875 -2.515625 C 23.421875 -1.546875 22.195312 -0.796875 20.75 -0.265625 C 19.300781 0.265625 17.675781 0.53125 15.875 0.53125 C 14.082031 0.53125 12.46875 0.265625 11.03125 -0.265625 C 9.601562 -0.796875 8.382812 -1.550781 7.375 -2.53125 C 6.375 -3.519531 5.597656 -4.722656 5.046875 -6.140625 C 4.503906 -7.554688 4.234375 -9.128906 4.234375 -10.859375 Z M 4.234375 -18.265625 "/></g></g></g><g fill="#ffffff" fill-opacity="1"><g transform="translate(155.72781, 206.956006)"><g/></g></g><g fill="#ffffff" fill-opacity="1"><g transform="translate(187.487804, 206.956006)"><g><path d="M 2.90625 -14.828125 C 2.90625 -16.691406 3.390625 -18.234375 4.359375 -19.453125 C 5.335938 -20.671875 6.722656 -21.523438 8.515625 -22.015625 L 8.15625 -22.546875 C 7.09375 -24.035156 6.347656 -25.351562 5.921875 -26.5 C 5.503906 -27.644531 5.296875 -28.78125 5.296875 -29.90625 C 5.296875 -31.175781 5.515625 -32.347656 5.953125 -33.421875 C 6.398438 -34.503906 7.035156 -35.429688 7.859375 -36.203125 C 8.691406 -36.984375 9.6875 -37.582031 10.84375 -38 C 12.007812 -38.425781 13.335938 -38.640625 14.828125 -38.640625 C 17.960938 -38.640625 20.410156 -37.816406 22.171875 -36.171875 C 23.941406 -34.535156 24.828125 -32.34375 24.828125 -29.59375 L 20.0625 -29.59375 C 20.0625 -31.039062 19.59375 -32.222656 18.65625 -33.140625 C 17.71875 -34.054688 16.441406 -34.515625 14.828125 -34.515625 C 13.335938 -34.515625 12.171875 -34.0625 11.328125 -33.15625 C 10.484375 -32.257812 10.0625 -31.140625 10.0625 -29.796875 C 10.0625 -28.242188 10.675781 -26.601562 11.90625 -24.875 L 21.015625 -12.328125 L 24.78125 -19.0625 L 29.75 -19.0625 L 23.765625 -8.515625 L 29.96875 0 L 24.71875 0 L 21.328125 -4.609375 C 20.054688 -2.910156 18.644531 -1.628906 17.09375 -0.765625 C 15.539062 0.0976562 13.898438 0.53125 12.171875 0.53125 C 9.273438 0.53125 7.003906 -0.234375 5.359375 -1.765625 C 3.722656 -3.304688 2.90625 -5.453125 2.90625 -8.203125 Z M 12.4375 -3.703125 C 13.632812 -3.703125 14.789062 -4.097656 15.90625 -4.890625 C 17.019531 -5.691406 17.960938 -6.78125 18.734375 -8.15625 L 10.53125 -19.328125 C 8.625 -18.722656 7.671875 -17.222656 7.671875 -14.828125 L 7.671875 -8.203125 C 7.671875 -6.753906 8.082031 -5.640625 8.90625 -4.859375 C 9.738281 -4.085938 10.914062 -3.703125 12.4375 -3.703125 Z M 12.4375 -3.703125 "/></g></g></g><g fill="#ffffff" fill-opacity="1"><g transform="translate(219.247797, 206.956006)"><g/></g></g><g fill="#ffffff" fill-opacity="1"><g transform="translate(251.00779, 206.956006)"><g><path d="M 16.203125 -38.640625 C 19.515625 -38.640625 22.1875 -37.726562 24.21875 -35.90625 C 26.25 -34.09375 27.457031 -31.566406 27.84375 -28.328125 L 23.078125 -28.328125 C 22.867188 -30.234375 22.15625 -31.722656 20.9375 -32.796875 C 19.71875 -33.867188 18.140625 -34.40625 16.203125 -34.40625 C 14.078125 -34.40625 12.394531 -33.769531 11.15625 -32.5 C 9.925781 -31.226562 9.3125 -29.484375 9.3125 -27.265625 L 9.3125 -10.859375 C 9.3125 -8.628906 9.921875 -6.878906 11.140625 -5.609375 C 12.359375 -4.335938 14.046875 -3.703125 16.203125 -3.703125 C 18.140625 -3.703125 19.71875 -4.238281 20.9375 -5.3125 C 22.15625 -6.394531 22.867188 -7.890625 23.078125 -9.796875 L 27.84375 -9.796875 C 27.457031 -6.546875 26.25 -4.007812 24.21875 -2.1875 C 22.1875 -0.375 19.515625 0.53125 16.203125 0.53125 C 14.398438 0.53125 12.785156 0.265625 11.359375 -0.265625 C 9.929688 -0.796875 8.710938 -1.550781 7.703125 -2.53125 C 6.691406 -3.519531 5.910156 -4.722656 5.359375 -6.140625 C 4.816406 -7.554688 4.546875 -9.128906 4.546875 -10.859375 L 4.546875 -27.265625 C 4.546875 -28.992188 4.816406 -30.5625 5.359375 -31.96875 C 5.910156 -33.382812 6.691406 -34.585938 7.703125 -35.578125 C 8.710938 -36.566406 9.929688 -37.320312 11.359375 -37.84375 C 12.785156 -38.375 14.398438 -38.640625 16.203125 -38.640625 Z M 16.203125 -38.640625 "/></g></g></g><g fill="#ffffff" fill-opacity="1"><g transform="translate(282.767783, 206.956006)"><g><path d="M 9 -10.859375 C 9 -8.628906 9.609375 -6.878906 10.828125 -5.609375 C 12.046875 -4.335938 13.726562 -3.703125 15.875 -3.703125 C 18 -3.703125 19.675781 -4.335938 20.90625 -5.609375 C 22.144531 -6.878906 22.765625 -8.628906 22.765625 -10.859375 L 22.765625 -18.265625 C 22.765625 -20.484375 22.144531 -22.226562 20.90625 -23.5 C 19.675781 -24.769531 18 -25.40625 15.875 -25.40625 C 13.757812 -25.40625 12.082031 -24.769531 10.84375 -23.5 C 9.613281 -22.226562 9 -20.484375 9 -18.265625 Z M 4.234375 -18.265625 C 4.234375 -20.023438 4.503906 -21.601562 5.046875 -23 C 5.597656 -24.394531 6.375 -25.585938 7.375 -26.578125 C 8.382812 -27.566406 9.601562 -28.320312 11.03125 -28.84375 C 12.46875 -29.375 14.082031 -29.640625 15.875 -29.640625 C 19.476562 -29.640625 22.320312 -28.632812 24.40625 -26.625 C 26.488281 -24.613281 27.53125 -21.84375 27.53125 -18.3125 L 27.53125 -10.859375 C 27.53125 -9.085938 27.265625 -7.492188 26.734375 -6.078125 C 26.203125 -4.671875 25.429688 -3.484375 24.421875 -2.515625 C 23.421875 -1.546875 22.195312 -0.796875 20.75 -0.265625 C 19.300781 0.265625 17.675781 0.53125 15.875 0.53125 C 14.082031 0.53125 12.46875 0.265625 11.03125 -0.265625 C 9.601562 -0.796875 8.382812 -1.550781 7.375 -2.53125 C 6.375 -3.519531 5.597656 -4.722656 5.046875 -6.140625 C 4.503906 -7.554688 4.234375 -9.128906 4.234375 -10.859375 Z M 4.234375 -18.265625 "/></g></g></g><g fill="#ffffff" fill-opacity="1"><g transform="translate(314.527776, 206.956006)"><g><path d="M 11.328125 -4.1875 C 11.328125 -5.5625 11.738281 -6.660156 12.5625 -7.484375 C 13.394531 -8.316406 14.5 -8.734375 15.875 -8.734375 C 17.257812 -8.734375 18.363281 -8.316406 19.1875 -7.484375 C 20.019531 -6.660156 20.4375 -5.5625 20.4375 -4.1875 C 20.4375 -2.769531 20.019531 -1.628906 19.1875 -0.765625 C 18.363281 0.0976562 17.257812 0.53125 15.875 0.53125 C 14.5 0.53125 13.394531 0.0976562 12.5625 -0.765625 C 11.738281 -1.628906 11.328125 -2.769531 11.328125 -4.1875 Z M 11.328125 -4.1875 "/></g></g></g></svg>